<svg width="226" height="65" viewBox="0 0 226 65" fill="none" xmlns="http://www.w3.org/2000/svg">
<path d="M54 20.7837C54 13.1829 47.8554 7 40.3018 7C35.0061 7 30.2597 10.1035 28.0002 14.7249C25.7403 10.1035 20.9935 7 15.6982 7C8.14467 7 2 13.1829 2 20.7837C2 26.1083 4.97915 30.8038 9.53784 33.0937C4.97915 35.3835 2 40.079 2 45.4038C2 53.0045 8.14467 59.1875 15.6982 59.1875C20.9935 59.1875 25.7403 56.0838 28.0002 51.4626C30.2597 56.0838 35.0061 59.1875 40.3018 59.1875C47.8554 59.1875 54 53.0045 54 45.4038C54 40.079 51.0209 35.3835 46.4622 33.0937C51.0209 30.8038 54 26.1083 54 20.7837Z" stroke="#B42561" stroke-width="4"/>
<path d="M88.8965 21.2988L91.9199 8.16797H96.0859L90.9004 27.1875H87.3848L83.3066 14.127L79.2988 27.1875H75.7832L70.5801 8.16797H74.7461L77.8223 21.1582L81.7246 8.16797H84.9414L88.8965 21.2988ZM103.152 10.2422C104.547 8.625 106.311 7.81641 108.443 7.81641C112.498 7.81641 114.555 10.1309 114.613 14.7598V27.1875H110.342V14.918C110.342 13.6055 110.055 12.6797 109.48 12.1406C108.918 11.5898 108.086 11.3145 106.984 11.3145C105.273 11.3145 103.996 12.0762 103.152 13.5996V27.1875H98.8809V0.1875H103.152V10.2422ZM130.311 27.1875C130.123 26.8242 129.959 26.2324 129.818 25.4121C128.459 26.8301 126.795 27.5391 124.826 27.5391C122.916 27.5391 121.357 26.9941 120.15 25.9043C118.943 24.8145 118.34 23.4668 118.34 21.8613C118.34 19.834 119.09 18.2812 120.59 17.2031C122.102 16.1133 124.258 15.5684 127.059 15.5684H129.678V14.3203C129.678 13.3359 129.402 12.5508 128.852 11.9648C128.301 11.3672 127.463 11.0684 126.338 11.0684C125.365 11.0684 124.568 11.3145 123.947 11.8066C123.326 12.2871 123.016 12.9023 123.016 13.6523H118.744C118.744 12.6094 119.09 11.6367 119.781 10.7344C120.473 9.82031 121.41 9.10547 122.594 8.58984C123.789 8.07422 125.119 7.81641 126.584 7.81641C128.811 7.81641 130.586 8.37891 131.91 9.50391C133.234 10.6172 133.914 12.1875 133.949 14.2148V22.793C133.949 24.5039 134.189 25.8691 134.67 26.8887V27.1875H130.311ZM125.617 24.1113C126.461 24.1113 127.252 23.9062 127.99 23.4961C128.74 23.0859 129.303 22.5352 129.678 21.8438V18.2578H127.375C125.793 18.2578 124.604 18.5332 123.807 19.084C123.01 19.6348 122.611 20.4141 122.611 21.4219C122.611 22.2422 122.881 22.8984 123.42 23.3906C123.971 23.8711 124.703 24.1113 125.617 24.1113ZM143.775 3.54492V8.16797H147.133V11.332H143.775V21.9492C143.775 22.6758 143.916 23.2031 144.197 23.5312C144.49 23.8477 145.006 24.0059 145.744 24.0059C146.236 24.0059 146.734 23.9473 147.238 23.8301V27.1348C146.266 27.4043 145.328 27.5391 144.426 27.5391C141.145 27.5391 139.504 25.7285 139.504 22.1074V11.332H136.375V8.16797H139.504V3.54492H143.775ZM158.787 27.5391C156.08 27.5391 153.883 26.6895 152.195 24.9902C150.52 23.2793 149.682 21.0059 149.682 18.1699V17.6426C149.682 15.7441 150.045 14.0508 150.771 12.5625C151.51 11.0625 152.541 9.89648 153.865 9.06445C155.189 8.23242 156.666 7.81641 158.295 7.81641C160.885 7.81641 162.883 8.64258 164.289 10.2949C165.707 11.9473 166.416 14.2852 166.416 17.3086V19.0312H153.988C154.117 20.6016 154.639 21.8438 155.553 22.7578C156.479 23.6719 157.639 24.1289 159.033 24.1289C160.99 24.1289 162.584 23.3379 163.814 21.7559L166.117 23.9531C165.355 25.0898 164.336 25.9746 163.059 26.6074C161.793 27.2285 160.369 27.5391 158.787 27.5391ZM158.277 11.2441C157.105 11.2441 156.156 11.6543 155.43 12.4746C154.715 13.2949 154.258 14.4375 154.059 15.9023H162.197V15.5859C162.104 14.1562 161.723 13.0781 161.055 12.3516C160.387 11.6133 159.461 11.2441 158.277 11.2441ZM176.207 21.7734L180.232 8.16797H184.645L178.053 27.1875H174.344L167.699 8.16797H172.129L176.207 21.7734ZM195.455 27.5391C192.748 27.5391 190.551 26.6895 188.863 24.9902C187.188 23.2793 186.35 21.0059 186.35 18.1699V17.6426C186.35 15.7441 186.713 14.0508 187.439 12.5625C188.178 11.0625 189.209 9.89648 190.533 9.06445C191.857 8.23242 193.334 7.81641 194.963 7.81641C197.553 7.81641 199.551 8.64258 200.957 10.2949C202.375 11.9473 203.084 14.2852 203.084 17.3086V19.0312H190.656C190.785 20.6016 191.307 21.8438 192.221 22.7578C193.146 23.6719 194.307 24.1289 195.701 24.1289C197.658 24.1289 199.252 23.3379 200.482 21.7559L202.785 23.9531C202.023 25.0898 201.004 25.9746 199.727 26.6074C198.461 27.2285 197.037 27.5391 195.455 27.5391ZM194.945 11.2441C193.773 11.2441 192.824 11.6543 192.098 12.4746C191.383 13.2949 190.926 14.4375 190.727 15.9023H198.865V15.5859C198.771 14.1562 198.391 13.0781 197.723 12.3516C197.055 11.6133 196.129 11.2441 194.945 11.2441ZM216.373 12.0703C215.811 11.9766 215.23 11.9297 214.633 11.9297C212.676 11.9297 211.357 12.6797 210.678 14.1797V27.1875H206.406V8.16797H210.484L210.59 10.2949C211.621 8.64258 213.051 7.81641 214.879 7.81641C215.488 7.81641 215.992 7.89844 216.391 8.0625L216.373 12.0703ZM82.8496 54.0195C82.8496 53.2578 82.5332 52.6777 81.9004 52.2793C81.2793 51.8809 80.2422 51.5293 78.7891 51.2246C77.3359 50.9199 76.123 50.5332 75.1504 50.0645C73.0176 49.0332 71.9512 47.5391 71.9512 45.582C71.9512 43.9414 72.6426 42.5703 74.0254 41.4688C75.4082 40.3672 77.166 39.8164 79.2988 39.8164C81.5723 39.8164 83.4062 40.3789 84.8008 41.5039C86.207 42.6289 86.9102 44.0879 86.9102 45.8809H82.6387C82.6387 45.0605 82.334 44.3809 81.7246 43.8418C81.1152 43.291 80.3066 43.0156 79.2988 43.0156C78.3613 43.0156 77.5938 43.2324 76.9961 43.666C76.4102 44.0996 76.1172 44.6797 76.1172 45.4062C76.1172 46.0625 76.3926 46.5723 76.9434 46.9355C77.4941 47.2988 78.6074 47.668 80.2832 48.043C81.959 48.4062 83.2715 48.8457 84.2207 49.3613C85.1816 49.8652 85.8906 50.4746 86.3477 51.1895C86.8164 51.9043 87.0508 52.7715 87.0508 53.791C87.0508 55.502 86.3418 56.8906 84.9238 57.957C83.5059 59.0117 81.6484 59.5391 79.3516 59.5391C77.793 59.5391 76.4043 59.2578 75.1855 58.6953C73.9668 58.1328 73.0176 57.3594 72.3379 56.375C71.6582 55.3906 71.3184 54.3301 71.3184 53.1934H75.4668C75.5254 54.2012 75.9062 54.9805 76.6094 55.5312C77.3125 56.0703 78.2441 56.3398 79.4043 56.3398C80.5293 56.3398 81.3848 56.1289 81.9707 55.707C82.5566 55.2734 82.8496 54.7109 82.8496 54.0195ZM98.5996 56.1289C99.666 56.1289 100.551 55.8184 101.254 55.1973C101.957 54.5762 102.332 53.8086 102.379 52.8945H106.404C106.357 54.0781 105.988 55.1855 105.297 56.2168C104.605 57.2363 103.668 58.0449 102.484 58.6426C101.301 59.2402 100.023 59.5391 98.6523 59.5391C95.9922 59.5391 93.8828 58.6777 92.3242 56.9551C90.7656 55.2324 89.9863 52.8535 89.9863 49.8184V49.3789C89.9863 46.4844 90.7598 44.1699 92.3066 42.4355C93.8535 40.6895 95.9629 39.8164 98.6348 39.8164C100.896 39.8164 102.736 40.4785 104.154 41.8027C105.584 43.1152 106.334 44.8438 106.404 46.9883H102.379C102.332 45.8984 101.957 45.002 101.254 44.2988C100.562 43.5957 99.6777 43.2441 98.5996 43.2441C97.2168 43.2441 96.1504 43.748 95.4004 44.7559C94.6504 45.752 94.2695 47.2695 94.2578 49.3086V49.9941C94.2578 52.0566 94.627 53.5977 95.3652 54.6172C96.1152 55.625 97.1934 56.1289 98.5996 56.1289ZM119.588 44.0703C119.025 43.9766 118.445 43.9297 117.848 43.9297C115.891 43.9297 114.572 44.6797 113.893 46.1797V59.1875H109.621V40.168H113.699L113.805 42.2949C114.836 40.6426 116.266 39.8164 118.094 39.8164C118.703 39.8164 119.207 39.8984 119.605 40.0625L119.588 44.0703ZM130.311 59.5391C127.604 59.5391 125.406 58.6895 123.719 56.9902C122.043 55.2793 121.205 53.0059 121.205 50.1699V49.6426C121.205 47.7441 121.568 46.0508 122.295 44.5625C123.033 43.0625 124.064 41.8965 125.389 41.0645C126.713 40.2324 128.189 39.8164 129.818 39.8164C132.408 39.8164 134.406 40.6426 135.812 42.2949C137.23 43.9473 137.939 46.2852 137.939 49.3086V51.0312H125.512C125.641 52.6016 126.162 53.8438 127.076 54.7578C128.002 55.6719 129.162 56.1289 130.557 56.1289C132.514 56.1289 134.107 55.3379 135.338 53.7559L137.641 55.9531C136.879 57.0898 135.859 57.9746 134.582 58.6074C133.316 59.2285 131.893 59.5391 130.311 59.5391ZM129.801 43.2441C128.629 43.2441 127.68 43.6543 126.953 44.4746C126.238 45.2949 125.781 46.4375 125.582 47.9023H133.721V47.5859C133.627 46.1562 133.246 45.0781 132.578 44.3516C131.91 43.6133 130.984 43.2441 129.801 43.2441ZM157.979 53.2988L161.002 40.168H165.168L159.982 59.1875H156.467L152.389 46.127L148.381 59.1875H144.865L139.662 40.168H143.828L146.904 53.1582L150.807 40.168H154.023L157.979 53.2988ZM181.533 59.1875H177.262V40.168H181.533V59.1875ZM176.998 35.2285C176.998 34.5723 177.203 34.0273 177.613 33.5938C178.035 33.1602 178.633 32.9434 179.406 32.9434C180.18 32.9434 180.777 33.1602 181.199 33.5938C181.621 34.0273 181.832 34.5723 181.832 35.2285C181.832 35.873 181.621 36.4121 181.199 36.8457C180.777 37.2676 180.18 37.4785 179.406 37.4785C178.633 37.4785 178.035 37.2676 177.613 36.8457C177.203 36.4121 176.998 35.873 176.998 35.2285ZM191.553 35.5449V40.168H194.91V43.332H191.553V53.9492C191.553 54.6758 191.693 55.2031 191.975 55.5312C192.268 55.8477 192.783 56.0059 193.521 56.0059C194.014 56.0059 194.512 55.9473 195.016 55.8301V59.1348C194.043 59.4043 193.105 59.5391 192.203 59.5391C188.922 59.5391 187.281 57.7285 187.281 54.1074V43.332H184.152V40.168H187.281V35.5449H191.553Z" fill="white"/>
</svg>
