<svg width="38" height="38" viewBox="0 0 38 38" fill="none" xmlns="http://www.w3.org/2000/svg">
<rect width="38" height="38" rx="5" fill="#EFEEF3"/>
<path fill-rule="evenodd" clip-rule="evenodd" d="M9 18.8387C9 13.246 13.2782 9 18.871 9C24.4637 9 29 13.246 29 18.8387C29 23.3105 26.2661 27.1371 22.2339 28.4758C21.7218 28.5685 21.5363 28.25 21.5363 27.9879C21.5363 27.8787 21.5376 27.6221 21.5394 27.2784C21.543 26.5816 21.5484 25.5269 21.5484 24.6169C21.5484 23.6694 21.2339 23.0645 20.8629 22.746C23.1169 22.4919 25.4919 22.1815 25.4919 18.2903C25.4919 17.1855 25.0968 16.629 24.4516 15.9153C24.5565 15.6532 24.8992 14.5766 24.3468 13.1774C23.504 12.9113 21.5645 14.2661 21.5645 14.2661C20.7581 14.0403 19.8911 13.9234 19.0323 13.9234C18.1734 13.9234 17.3065 14.0403 16.5 14.2661C16.5 14.2661 14.5605 12.9153 13.7177 13.1774C13.1653 14.5726 13.5081 15.6532 13.6129 15.9153C12.9677 16.625 12.6613 17.1815 12.6613 18.2903C12.6613 22.1694 14.9355 22.496 17.1895 22.746C16.8992 23.0121 16.6371 23.4597 16.5444 24.1048C15.9677 24.371 14.4879 24.8185 13.6048 23.2621C13.0524 22.3024 12.0484 22.2218 12.0484 22.2218C11.0605 22.2097 11.9839 22.8427 11.9839 22.8427C12.6452 23.1452 13.1048 24.3185 13.1048 24.3185C13.6976 26.125 16.5202 25.5202 16.5202 25.5202C16.5202 26.0688 16.5253 26.8409 16.5289 27.3846C16.5308 27.68 16.5323 27.908 16.5323 27.996C16.5323 28.2581 16.3508 28.5766 15.8347 28.4839C11.8145 27.1371 9 23.3105 9 18.8387ZM14.6089 24.7177C14.4879 24.6935 14.4073 24.6008 14.4355 24.5202C14.4637 24.4395 14.5806 24.3992 14.6855 24.4274C14.8065 24.4637 14.8831 24.5565 14.8589 24.6371C14.8347 24.7177 14.7137 24.7581 14.6089 24.7177ZM15.4798 24.8468C15.5968 24.8468 15.6895 24.7823 15.6895 24.7016C15.6895 24.6089 15.5847 24.5444 15.4637 24.5565C15.3468 24.5565 15.254 24.621 15.254 24.7016C15.254 24.7944 15.3468 24.8589 15.4798 24.8468ZM16.2177 24.4516C16.1008 24.4798 16.0202 24.5565 16.0323 24.6492C16.0444 24.7298 16.1492 24.7823 16.2702 24.754C16.3871 24.7258 16.4677 24.6492 16.4556 24.5685C16.4435 24.4919 16.3347 24.4395 16.2177 24.4516ZM12.9194 22.9073C12.8669 22.9476 12.879 23.0403 12.9476 23.1169C13.0121 23.1815 13.1048 23.2097 13.1573 23.1573C13.2097 23.1169 13.1976 23.0242 13.129 22.9476C13.0645 22.8831 12.9718 22.8548 12.9194 22.9073ZM12.5766 22.7379C12.496 22.6976 12.4556 22.6331 12.4839 22.5806C12.5121 22.5403 12.5766 22.5282 12.6573 22.5524C12.7379 22.5927 12.7782 22.6573 12.75 22.7097C12.7218 22.7661 12.6411 22.7782 12.5766 22.7379ZM13.7903 24.0161C13.7258 24.0685 13.75 24.1895 13.8427 24.2661C13.9355 24.3589 14.0524 24.371 14.1048 24.3065C14.1573 24.254 14.1331 24.1331 14.0524 24.0565C13.9637 23.9637 13.8427 23.9516 13.7903 24.0161ZM13.3306 23.6613C13.2661 23.5685 13.2661 23.4637 13.3306 23.4234C13.3952 23.371 13.5 23.4113 13.5565 23.504C13.621 23.5968 13.621 23.7016 13.5565 23.754C13.504 23.7944 13.3952 23.754 13.3306 23.6613Z" fill="#0D0D0D"/>
</svg>
