<svg width="38" height="38" viewBox="0 0 38 38" fill="none" xmlns="http://www.w3.org/2000/svg">
<rect width="38" height="38" rx="5" fill="#EFEEF3"/>
<path fill-rule="evenodd" clip-rule="evenodd" d="M28.9408 14.8783C28.8649 13.2757 28.4989 11.856 27.3247 10.6864C26.1551 9.51674 24.7355 9.15067 23.1328 9.07031C21.481 8.97656 16.5301 8.97656 14.8783 9.07031C13.2801 9.14621 11.8605 9.51228 10.6864 10.6819C9.51228 11.8516 9.15067 13.2712 9.07031 14.8739C8.97656 16.5257 8.97656 21.4766 9.07031 23.1283C9.14621 24.731 9.51228 26.1507 10.6864 27.3203C11.8605 28.49 13.2757 28.856 14.8783 28.9364C16.5301 29.0301 21.481 29.0301 23.1328 28.9364C24.7355 28.8605 26.1551 28.4944 27.3247 27.3203C28.4944 26.1507 28.8605 24.731 28.9408 23.1283C29.0346 21.4766 29.0346 16.5301 28.9408 14.8783ZM24.3471 14.8605C25.0078 14.8605 25.5435 14.3292 25.5435 13.6641C25.5435 13.0033 25.0078 12.4676 24.3471 12.4676C23.6864 12.4676 23.1506 13.0033 23.1506 13.6641C23.1506 14.3248 23.6819 14.8605 24.3471 14.8605ZM19.0078 13.8739C16.1685 13.8739 13.8783 16.1641 13.8783 19.0033C13.8783 21.8426 16.1685 24.1328 19.0078 24.1328C21.8471 24.1328 24.1373 21.8426 24.1373 19.0033C24.1373 16.1641 21.8471 13.8739 19.0078 13.8739ZM19.0078 22.3382C17.173 22.3382 15.673 20.8426 15.673 19.0033C15.673 17.1641 17.1685 15.6685 19.0078 15.6685C20.8471 15.6685 22.3426 17.1641 22.3426 19.0033C22.3426 20.8426 20.8426 22.3382 19.0078 22.3382ZM24.9051 26.8025C25.7846 26.4498 26.4587 25.7757 26.8069 24.9007C27.2549 23.7749 27.23 21.3123 27.2138 19.716C27.2111 19.4513 27.2087 19.2103 27.2087 19.0033C27.2087 18.7962 27.2111 18.5554 27.2138 18.2907C27.23 16.6954 27.2549 14.2356 26.8069 13.106C26.4542 12.2266 25.7801 11.5525 24.9051 11.2042C23.7759 10.7587 21.3016 10.7824 19.7058 10.7978C19.4468 10.8002 19.211 10.8025 19.0078 10.8025C18.8006 10.8025 18.5596 10.8001 18.2948 10.7974C16.6993 10.7812 14.2399 10.7563 13.1105 11.2042C12.231 11.5569 11.5569 12.231 11.2087 13.106C10.7631 14.2353 10.7868 16.7097 10.8022 18.3055C10.8046 18.5644 10.8069 18.8001 10.8069 19.0033C10.8069 19.2104 10.8045 19.4513 10.8018 19.7159C10.7856 21.3114 10.7607 23.7711 11.2087 24.9007C11.5614 25.7801 12.2355 26.4542 13.1105 26.8025C14.2398 27.248 16.714 27.2243 18.3098 27.209C18.5688 27.2065 18.8046 27.2042 19.0078 27.2042C19.215 27.2042 19.456 27.2066 19.7208 27.2093C21.3163 27.2255 23.7756 27.2504 24.9051 26.8025Z" fill="#0D0D0D"/>
</svg>
